<svg xmlns="http://www.w3.org/2000/svg" xmlns:xlink="http://www.w3.org/1999/xlink" viewBox="0 0 50 50" version="1.1">
<g id="surface1">
<path style=" " d="M 42.417969 39.484375 C 39.019531 35.710938 31.046875 24.683594 30.390625 3.820313 C 30.359375 2.902344 30.390625 1.019531 30.390625 1.015625 C 30.394531 0.746094 30.289063 0.488281 30.101563 0.296875 C 29.914063 0.105469 29.65625 0 29.390625 0 L 9.011719 0 C 8.460938 0 8.015625 0.441406 8.011719 0.988281 C 8.011719 0.988281 7.988281 2.929688 8.011719 3.875 C 8.679688 30.617188 18.597656 44.011719 22.828125 48.527344 C 23.554688 49.304688 24.320313 50 25.691406 50 C 26.34375 50 27.117188 49.847656 28.273438 49.476563 C 32.066406 47.933594 40.28125 44.589844 41.464844 44.089844 C 42.550781 43.628906 43.195313 42.972656 43.378906 42.144531 C 43.566406 41.296875 43.242188 40.398438 42.417969 39.484375 Z M 29.195313 44.246094 C 29.015625 44.414063 28.785156 44.5 28.554688 44.5 C 28.304688 44.5 28.054688 44.398438 27.871094 44.203125 C 24.175781 40.265625 15.527344 28.585938 14.945313 5.269531 C 14.933594 4.75 15.34375 4.320313 15.859375 4.308594 C 16.34375 4.289063 16.808594 4.703125 16.820313 5.222656 C 17.386719 27.890625 25.695313 39.136719 29.238281 42.921875 C 29.59375 43.300781 29.574219 43.894531 29.195313 44.246094 Z M 35.175781 41.898438 C 34.996094 42.070313 34.765625 42.152344 34.535156 42.152344 C 34.285156 42.152344 34.035156 42.054688 33.851563 41.855469 C 30.355469 38.128906 22.164063 27.0625 21.613281 4.996094 C 21.601563 4.480469 22.011719 4.050781 22.527344 4.035156 C 23.132813 4.039063 23.476563 4.433594 23.488281 4.949219 C 24.023438 26.375 31.871094 37.003906 35.21875 40.578125 C 35.574219 40.953125 35.554688 41.546875 35.175781 41.898438 Z "></path>
</g>
</svg>