<svg xmlns="http://www.w3.org/2000/svg" xmlns:xlink="http://www.w3.org/1999/xlink" viewBox="0 0 50 50" version="1.1">
<g id="surface1">
<path style=" " d="M 9 8 C 8.449219 8 8 8.449219 8 9 L 5 9 C 4.449219 9 4 9.449219 4 10 L 4 19 C 4 19.550781 4.449219 20 5 20 C 6.457031 20 8 21.542969 8 23 C 8 24.296875 7.144531 25.582031 6.054688 27.214844 C 4.34375 29.78125 2 33.296875 2 39 C 2 39.058594 2.003906 39.117188 2.015625 39.171875 C 2.035156 39.289063 2.558594 42 6.550781 42 L 11.882813 42 C 14.375 42 15.714844 41.082031 16.214844 39.03125 L 18.777344 29 L 28.320313 29 C 28.75 29 29.132813 28.722656 29.269531 28.316406 L 31.71875 21 L 44 21 C 44.265625 21 44.519531 20.894531 44.707031 20.707031 L 45.414063 20 L 47 20 C 47.550781 20 48 19.550781 48 19 L 48 10 C 48 9.449219 47.550781 9 47 9 L 45.414063 9 L 44.707031 8.292969 C 44.519531 8.105469 44.265625 8 44 8 L 42 8 C 41.449219 8 41 8.449219 41 9 L 12.414063 9 L 11.707031 8.292969 C 11.519531 8.105469 11.265625 8 11 8 Z M 21 13 L 27 13 C 27.550781 13 28 13.449219 28 14 C 28 14.550781 27.550781 15 27 15 L 21 15 C 20.449219 15 20 14.550781 20 14 C 20 13.449219 20.449219 13 21 13 Z M 24.191406 21 L 29.609375 21 L 27.601563 27 L 21.871094 27 C 21.5625 26.648438 21 25.757813 21 24 C 21 22.769531 21.402344 21.929688 22.203125 21.453125 C 22.285156 23.035156 23 24.941406 25.34375 25.824219 C 25.457031 25.867188 25.578125 25.890625 25.691406 25.890625 C 26.097656 25.890625 26.480469 25.640625 26.628906 25.242188 C 26.824219 24.722656 26.5625 24.148438 26.046875 23.953125 C 24.355469 23.316406 24.152344 21.875 24.191406 21 Z "></path>
</g>
</svg>