<svg xmlns="http://www.w3.org/2000/svg" xmlns:xlink="http://www.w3.org/1999/xlink" viewBox="0 0 50 50" version="1.1">
<g id="surface1">
<path style=" " d="M 5 2 C 3.347656 2 2 3.347656 2 5 L 2 45 C 2 46.652344 3.347656 48 5 48 L 45 48 C 46.652344 48 48 46.652344 48 45 L 48 12 C 48 11.734375 47.90625 11.46875 47.71875 11.28125 L 38.71875 2.28125 C 38.53125 2.09375 38.265625 2 38 2 Z M 12 4 L 35 4 C 36.101563 4 37 4.898438 37 6 L 37 17 C 37 18.101563 36.101563 19 35 19 L 12 19 C 10.898438 19 10 18.101563 10 17 L 10 6 C 10 4.898438 10.898438 4 12 4 Z M 30 6 C 29.445313 6 29 6.445313 29 7 L 29 16 C 29 16.554688 29.445313 17 30 17 L 33 17 C 33.554688 17 34 16.554688 34 16 L 34 7 C 34 6.445313 33.554688 6 33 6 Z M 12.8125 26.03125 L 37.1875 26.03125 C 38.71875 26.03125 39.96875 27.28125 39.96875 28.8125 L 39.96875 46 L 10.03125 46 L 10.03125 28.8125 C 10.03125 27.28125 11.28125 26.03125 12.8125 26.03125 Z M 6 41 L 8 41 L 8 43 L 6 43 Z M 42 41 L 44 41 L 44 43 L 42 43 Z "></path>
</g>
</svg>